# xmcd
#
# Track frame offsets: 
#        150
#        15891
#        38173
#        53140
#        109846
#        128288
#        152099
#        172914
#        217616
#        239761
#        254898
#        273076
#
# Disc length: 3863 seconds
#
# Revision: 0
# Processed by: cddbd v1.5.2PL0 Copyright (c) Steve Scherf et al.
# Submitted via: ExactAudioCopy v0.99pb5
#
DISCID=930f150c
DTITLE=Brandon Rhyder - Live at Billy Bob´s - CD 2
DYEAR=2011
DGENRE=Country
TTITLE0=Rock Angel
TTITLE1=Battery
TTITLE2=Austin Avenue
TTITLE3=Backwards-Country Boy Can Survive
TTITLE4=Head Above Water
TTITLE5=Freeze Frame Time
TTITLE6=Shine (featuring Matt Powell)
TTITLE7=Have I Waited Too Long
TTITLE8=Lucky Man
TTITLE9=Lord, I Hope This day Is Good (studio bonus)
TTITLE10=In the Country (studio bonus)
TTITLE11=Let the Good Times Roll (studio bonus)
EXTD=
EXTT0=
EXTT1=
EXTT2=
EXTT3=
EXTT4=
EXTT5=
EXTT6=
EXTT7=
EXTT8=
EXTT9=
EXTT10=
EXTT11=
PLAYORDER=
